<?xml version="1.0" encoding="utf-8"?>
<!-- Generator: Adobe Illustrator 23.1.1, SVG Export Plug-In . SVG Version: 6.00 Build 0)  -->
<svg version="1.1" id="Calque_1" xmlns="http://www.w3.org/2000/svg" xmlns:xlink="http://www.w3.org/1999/xlink" x="0px" y="0px"
	 viewBox="0 0 200 60" style="enable-background:new 0 0 200 60;" xml:space="preserve">
<style type="text/css">
	.st0{fill:none;}
	.st1{fill:#1A1330;}
</style>
<rect x="0.1" y="-0.1" class="st0" width="200" height="60"/>
<g>
	<path class="st1" d="M44.1,40v1.2c-1,0.9-2.7,1.3-4.9,1.3c-1.1,0-2-0.2-2.6-0.5c-0.6-0.3-1-0.8-1-1.6V27.1c0-0.9-0.2-1.5-0.7-2
		c-0.5-0.5-1.1-0.7-1.9-0.7c-1,0-1.8,0.3-2.5,1c0,0.1,0,0.3,0,0.6v12c0,0.8,0.2,1.3,0.5,1.7c0.3,0.3,0.8,0.5,1.5,0.5
		c0,0.8-0.3,1.5-1,2.2h-8.5c-0.6-0.7-0.9-1.4-0.9-2.2c0.7,0,1.1-0.2,1.4-0.5c0.3-0.3,0.4-0.9,0.4-1.7V27.1c0-0.8-0.2-1.5-0.7-2
		s-1.1-0.7-1.8-0.7c-0.5,0-1.1,0.1-1.6,0.4c-0.5,0.3-1,0.6-1.3,1v12.1c0,0.8,0.1,1.3,0.4,1.7c0.3,0.3,0.8,0.5,1.4,0.5
		c0,0.8-0.3,1.5-1,2.2h-8.7c-0.6-0.6-1-1.4-1-2.2c0.8,0,1.4-0.2,1.7-0.5c0.3-0.3,0.5-0.9,0.5-1.7V26.2c0-0.7-0.2-1.2-0.6-1.5
		c-0.4-0.3-1.1-0.5-2.1-0.5v-1.8c0.9-0.5,2.1-1,3.6-1.4c1.6-0.4,2.7-0.6,3.5-0.6c0.6,0,1,0.2,1.4,0.5c0.3,0.4,0.6,1,0.7,2
		c0.7-0.8,1.6-1.4,2.6-1.9c1.1-0.5,2.3-0.7,3.6-0.7c2.7,0,4.4,0.9,5.2,2.7c0.7-0.9,1.6-1.5,2.7-2c1.1-0.5,2.3-0.7,3.7-0.7
		c1.9,0,3.3,0.5,4.3,1.4c1,0.9,1.4,2.3,1.4,4.1v12C42.1,39,42.8,39.7,44.1,40z"/>
	<path class="st1" d="M47.5,32.3c1.2-1,2.9-1.6,5.2-1.6c0.8,0,1.6,0.1,2.5,0.2c0.8,0.2,1.5,0.4,2.1,0.6v-5.3c0-1.1-0.3-1.8-0.8-2.3
		c-0.5-0.5-1.3-0.7-2.2-0.7c-0.9,0-1.6,0.2-2.2,0.6c0.5,0.2,0.9,0.4,1.1,0.8c0.3,0.4,0.4,0.8,0.4,1.3c0,0.9-0.3,1.5-0.9,2.1
		c-0.6,0.5-1.4,0.8-2.3,0.8c-1,0-1.8-0.3-2.4-0.9c-0.6-0.6-0.9-1.3-0.9-2.3c0-0.9,0.3-1.8,1-2.6c0.6-0.8,1.6-1.5,2.9-2
		c1.3-0.5,3-0.8,4.9-0.8c2.6,0,4.6,0.5,6,1.6c1.4,1.1,2,2.7,2,4.7v10.6c0,1.3,0.6,2.1,1.8,2.3V41c-0.3,0.5-0.9,0.9-1.7,1.1
		c-0.8,0.3-1.6,0.4-2.4,0.4c-1.8,0-3.1-0.6-3.8-1.9c-0.6,0.5-1.4,1-2.2,1.3c-0.9,0.4-1.9,0.5-3,0.5c-2,0-3.6-0.6-4.9-1.7
		c-1.2-1.1-1.9-2.5-1.9-4.3C45.7,34.8,46.3,33.4,47.5,32.3z M57.2,34.7c-0.3-0.2-0.6-0.3-1.1-0.5c-0.4-0.1-0.8-0.2-1.2-0.2
		c-0.7,0-1.4,0.2-1.8,0.7c-0.5,0.5-0.7,1.1-0.7,2c0,0.7,0.2,1.3,0.7,1.8c0.5,0.5,1.1,0.7,1.9,0.7c0.4,0,0.8-0.1,1.2-0.2
		c0.4-0.1,0.7-0.3,1-0.5V34.7z"/>
	<path class="st1" d="M90,41.1c-0.4,0.4-1.1,0.7-2.1,1c-1,0.2-2,0.4-2.9,0.4c-1.1,0-2-0.2-2.5-0.6c-0.5-0.4-0.8-1.1-0.8-2V27.3
		c0-1-0.2-1.8-0.7-2.2c-0.5-0.5-1.1-0.7-1.8-0.7c-1.1,0-2,0.4-2.8,1.3v12.2c0,0.8,0.2,1.3,0.5,1.7c0.3,0.3,0.9,0.5,1.7,0.5
		c0,0.8-0.3,1.5-0.9,2.1h-9.1c-0.6-0.6-1-1.3-1-2.1c0.8,0,1.4-0.2,1.7-0.5c0.3-0.3,0.5-0.9,0.5-1.7V26.2c0-0.7-0.2-1.2-0.6-1.5
		c-0.4-0.3-1.1-0.5-2.1-0.5v-1.8c0.9-0.5,2.1-0.9,3.6-1.3s2.7-0.6,3.5-0.6c0.6,0,1.1,0.2,1.4,0.6c0.3,0.4,0.5,1.1,0.6,2.2
		c0.7-0.9,1.6-1.5,2.6-2c1-0.5,2.2-0.7,3.5-0.7c1.9,0,3.3,0.5,4.3,1.5c0.9,1,1.4,2.6,1.4,4.8v10.9c0,1.3,0.6,2.1,1.9,2.3L90,41.1z"
		/>
	<path class="st1" d="M108.3,36.5c0.2,0.2,0.4,0.5,0.6,1s0.2,0.8,0.2,1.1c0,0.5-0.3,1-1,1.7c-0.6,0.6-1.5,1.2-2.7,1.6
		c-1.1,0.5-2.4,0.7-3.8,0.7c-2,0-3.7-0.4-5.2-1.3s-2.6-2.1-3.4-3.7c-0.8-1.6-1.2-3.5-1.2-5.8c0-2.3,0.4-4.3,1.3-6
		c0.9-1.7,2.1-3,3.6-3.9c1.5-0.9,3.2-1.4,5.2-1.4c2.4,0,4.4,0.7,5.8,2.1c1.4,1.4,2.2,3.4,2.2,5.9c0,1.2-0.2,2.1-0.6,2.8
		c-0.4,0.7-1,1-2,1h-8.6c0.2,3.9,1.8,5.8,5,5.8C105.3,38.1,106.8,37.6,108.3,36.5z M99.5,24.7c-0.6,0.9-0.9,2.5-0.9,4.6h4
		c0.4,0,0.7-0.1,0.8-0.4c0.1-0.3,0.2-0.7,0.2-1.4c0-1.6-0.2-2.7-0.6-3.3c-0.4-0.6-0.9-0.9-1.5-0.9C100.8,23.3,100.1,23.8,99.5,24.7z
		"/>
	<path class="st1" d="M120.5,31.5l1.8,7l1.8-7l1.6-5.4c0.1-0.4,0.2-0.7,0.2-1c0-0.6-0.2-1-0.5-1.3c-0.4-0.3-0.9-0.4-1.5-0.4
		c0-1.1,0.3-1.9,0.8-2.4h7.8c0.5,0.5,0.8,1.3,0.8,2.4c-0.7,0-1.2,0.2-1.5,0.5c-0.3,0.3-0.6,0.9-0.9,1.6l-4.2,12.8
		c-0.5,1.6-1,2.7-1.5,3.3c-0.6,0.6-1.4,1-2.6,1h-4.2l-6.3-17c-0.3-0.8-0.6-1.3-0.9-1.6c-0.3-0.3-0.8-0.5-1.4-0.5
		c0-1,0.3-1.8,0.8-2.4h9.1c0.3,0.3,0.5,0.7,0.7,1.1c0.2,0.4,0.2,0.9,0.2,1.3c-0.6,0-1,0.2-1.4,0.5c-0.3,0.3-0.5,0.8-0.5,1.3
		c0,0.2,0.1,0.5,0.2,0.8L120.5,31.5z"/>
	<path class="st1" d="M149.5,36.5c0.2,0.2,0.4,0.5,0.6,1s0.2,0.8,0.2,1.1c0,0.5-0.3,1-1,1.7c-0.6,0.6-1.5,1.2-2.7,1.6
		c-1.1,0.5-2.4,0.7-3.8,0.7c-2,0-3.7-0.4-5.2-1.3c-1.5-0.9-2.6-2.1-3.4-3.7S133,34,133,31.8c0-2.3,0.4-4.3,1.3-6
		c0.9-1.7,2.1-3,3.6-3.9c1.5-0.9,3.2-1.4,5.2-1.4c2.4,0,4.4,0.7,5.8,2.1c1.4,1.4,2.2,3.4,2.2,5.9c0,1.2-0.2,2.1-0.6,2.8
		c-0.4,0.7-1,1-2,1h-8.6c0.2,3.9,1.8,5.8,5,5.8C146.5,38.1,148,37.6,149.5,36.5z M140.7,24.7c-0.6,0.9-0.9,2.5-0.9,4.6h4
		c0.4,0,0.7-0.1,0.8-0.4s0.2-0.7,0.2-1.4c0-1.6-0.2-2.7-0.6-3.3c-0.4-0.6-0.9-0.9-1.5-0.9C142,23.3,141.3,23.8,140.7,24.7z"/>
	<path class="st1" d="M175.7,41.1c-0.4,0.4-1.1,0.7-2.1,1c-1,0.2-2,0.4-2.9,0.4c-1.1,0-2-0.2-2.5-0.6c-0.5-0.4-0.8-1.1-0.8-2V27.3
		c0-1-0.2-1.8-0.7-2.2c-0.5-0.5-1.1-0.7-1.8-0.7c-1.1,0-2,0.4-2.8,1.3v12.2c0,0.8,0.2,1.3,0.5,1.7c0.3,0.3,0.9,0.5,1.7,0.5
		c0,0.8-0.3,1.5-0.9,2.1h-9.1c-0.6-0.6-1-1.3-1-2.1c0.8,0,1.4-0.2,1.7-0.5s0.5-0.9,0.5-1.7V26.2c0-0.7-0.2-1.2-0.6-1.5
		c-0.4-0.3-1.1-0.5-2.1-0.5v-1.8c0.9-0.5,2.1-0.9,3.6-1.3c1.6-0.4,2.7-0.6,3.5-0.6c0.6,0,1.1,0.2,1.4,0.6c0.3,0.4,0.5,1.1,0.6,2.2
		c0.7-0.9,1.6-1.5,2.6-2c1-0.5,2.2-0.7,3.5-0.7c1.9,0,3.3,0.5,4.3,1.5c0.9,1,1.4,2.6,1.4,4.8v10.9c0,1.3,0.6,2.1,1.9,2.3L175.7,41.1
		z"/>
	<path class="st1" d="M185.7,24.6v11.3c0,0.8,0.2,1.4,0.5,1.7c0.3,0.3,0.8,0.5,1.4,0.5c0.5,0,1-0.1,1.6-0.4c0.6-0.3,1-0.6,1.3-1
		c0.3,0.2,0.5,0.5,0.6,1s0.2,0.8,0.2,1.2c0,0.6-0.2,1.2-0.6,1.8c-0.4,0.6-1.1,1.1-1.9,1.4c-0.9,0.4-1.9,0.6-3.1,0.6
		c-1.9,0-3.4-0.5-4.5-1.6c-1.1-1.1-1.7-2.8-1.7-5.3v-11h-2.5v-2.4c0.7-0.1,1.4-0.6,2-1.3c0.7-0.8,1.2-1.8,1.7-3s0.8-2.4,0.9-3.5
		c0.5-0.1,0.9-0.1,1.3-0.1c1,0,1.7,0.3,2.1,0.8c0.5,0.5,0.7,1.2,0.7,1.8V21h4.6c0,0.8,0,1.5-0.1,2.1c-0.1,0.6-0.3,1.1-0.5,1.5H185.7
		z"/>
</g>
</svg>
